ffmpeg version 4.2.7-0ubuntu0.1 Copyright (c) 2000-2022 the FFmpeg developers
  built with gcc 9 (Ubuntu 9.4.0-1ubuntu1~20.04.1)
  configuration: --prefix=/usr --extra-version=0ubuntu0.1 --toolchain=hardened --libdir=/usr/lib/x86_64-linux-gnu --incdir=/usr/include/x86_64-linux-gnu --arch=amd64 --enable-gpl --disable-stripping --enable-avresample --disable-filter=resample --enable-avisynth --enable-gnutls --enable-ladspa --enable-libaom --enable-libass --enable-libbluray --enable-libbs2b --enable-libcaca --enable-libcdio --enable-libcodec2 --enable-libflite --enable-libfontconfig --enable-libfreetype --enable-libfribidi --enable-libgme --enable-libgsm --enable-libjack --enable-libmp3lame --enable-libmysofa --enable-libopenjpeg --enable-libopenmpt --enable-libopus --enable-libpulse --enable-librsvg --enable-librubberband --enable-libshine --enable-libsnappy --enable-libsoxr --enable-libspeex --enable-libssh --enable-libtheora --enable-libtwolame --enable-libvidstab --enable-libvorbis --enable-libvpx --enable-libwavpack --enable-libwebp --enable-libx265 --enable-libxml2 --enable-libxvid --enable-libzmq --enable-libzvbi --enable-lv2 --enable-omx --enable-openal --enable-opencl --enable-opengl --enable-sdl2 --enable-libdc1394 --enable-libdrm --enable-libiec61883 --enable-nvenc --enable-chromaprint --enable-frei0r --enable-libx264 --enable-shared
  libavutil      56. 31.100 / 56. 31.100
  libavcodec     58. 54.100 / 58. 54.100
  libavformat    58. 29.100 / 58. 29.100
  libavdevice    58.  8.100 / 58.  8.100
  libavfilter     7. 57.100 /  7. 57.100
  libavresample   4.  0.  0 /  4.  0.  0
  libswscale      5.  5.100 /  5.  5.100
  libswresample   3.  5.100 /  3.  5.100
  libpostproc    55.  5.100 / 55.  5.100
Input #0, mov,mp4,m4a,3gp,3g2,mj2, from '/home/drm/public_html/dashboard/uploaded_files/presentacion_20.mp4':
  Metadata:
    major_brand     : mp42
    minor_version   : 0
    compatible_brands: mp42mp41isomavc1
    creation_time   : 2021-01-27T12:35:15.000000Z
  Duration: 00:06:24.90, start: 0.000000, bitrate: 455 kb/s
    Stream #0:0(und): Video: h264 (High) (avc1 / 0x31637661), yuv420p(tv, smpte170m), 854x480, 197 kb/s, 25 fps, 25 tbr, 25 tbn, 50 tbc (default)
    Metadata:
      creation_time   : 2021-01-27T12:35:15.000000Z
      handler_name    : L-SMASH Video Handler
      encoder         : AVC Coding
    Stream #0:1(und): Audio: aac (LC) (mp4a / 0x6134706D), 48000 Hz, stereo, fltp, 253 kb/s (default)
    Metadata:
      creation_time   : 2021-01-27T12:35:15.000000Z
      handler_name    : L-SMASH Audio Handler
Stream mapping:
  Stream #0:0 -> #0:0 (h264 (native) -> mjpeg (native))
Press [q] to stop, [?] for help
[swscaler @ 0x563ba0319700] deprecated pixel format used, make sure you did set range correctly
Output #0, image2, to '/home/drm/public_html/portadas/8a2cd3dbb9372e4ceacfa5473706b1de.jpg':
  Metadata:
    major_brand     : mp42
    minor_version   : 0
    compatible_brands: mp42mp41isomavc1
    encoder         : Lavf58.29.100
    Stream #0:0(und): Video: mjpeg, yuvj420p(pc), 200x112, q=2-31, 200 kb/s, 25 fps, 25 tbn, 25 tbc (default)
    Metadata:
      creation_time   : 2021-01-27T12:35:15.000000Z
      handler_name    : L-SMASH Video Handler
      encoder         : Lavc58.54.100 mjpeg
    Side data:
      cpb: bitrate max/min/avg: 0/0/200000 buffer size: 0 vbv_delay: -1
frame=    1 fps=0.0 q=4.4 Lsize=N/A time=00:00:00.04 bitrate=N/A dup=1 drop=1 speed=2.89x
video:6kB audio:0kB subtitle:0kB other streams:0kB global headers:0kB muxing overhead: unknown